<?xml version="1.0" encoding="UTF-8"?>
<svg id="Logo" xmlns="http://www.w3.org/2000/svg" viewBox="0 0 515.6617485 135.6972484">
  <defs>
    <style>
      .cls-1 {
        fill: #ff470d;
      }
    </style>
  </defs>
  <path class="cls-1" d="m394.6537918,63.2221238v9.8982857c6.8482159.3452052,10.2433921-.0574684,10.9916659-.1727014-.9208764,3.1651053-2.8199001,6.0424737-8.517366,6.0424737-8.9773105,0-9.8979894-8.9199409-9.8979894-10.9916659,0-2.1291934.9206789-11.1066027,9.8979894-11.1066027,4.2011159,0,6.4455423,1.8990237,7.7690923,4.028612l12.4303501-6.4455423c-2.9350343-5.2943974-8.2292342-10.2434909-20.0266423-10.2434909-22.5009422,0-24.5725685,19.3936015-24.5725685,23.7670238,0,7.5389225,3.3951763,23.5946187,24.3423,23.5946187,13.4086949,0,23.1342792-7.9989658,23.1342792-23.3643502,0-1.1508486-.2302685-3.5103105-.4026736-5.0066606h-25.1484371Z"/>
  <path class="cls-1" d="m353.0660424,65.604494c-4.9489947-7.7690923-9.4378475-16.6315648-10.5885974-20.372045h-17.5521449v45.2323503h13.1209581v-20.4869818c5.236929,8.1717659,9.7255843,17.2644081,10.8763342,20.4869818h17.2065448v-45.2323503h-13.0630947v20.372045Z"/>
  <rect class="cls-1" x="300.4220491" y="45.232449" width="15.2502502" height="45.2323503"/>
  <path class="cls-1" d="m223.3180544,61.2396624c-7.7112289,0-7.3660237-.8055447-7.3660237-2.6471,0-3.6831106,13.9839711-2.6471987,22.9614791,1.4384867l1.4961526-10.9338026c-8.0566316-7.4235908-38.3266661-9.5527842-38.3266661,10.3584276,0,2.3019935-1.3237475,15.3653844,18.5879581,15.3653844,6.8480184,0,7.5388238.5753749,7.5388238,2.7046671,0,3.280042-14.7322449,2.4169302-24.2277582-3.280042l-.9781473,11.7970131c8.8621763,7.0782869,39.5925502,11.0491343,39.5350818-10.1282579,0-1.7840869,1.32355-14.6747765-19.2209001-14.6747765Z"/>
  <path class="cls-1" d="m134.5681232,61.1443755c4.3239521-5.2397926,7.3335147-10.7426363,9.3293064-15.9120252h-15.2660491c-2.5400627,5.8218821-6.1337883,12.0240231-12.8469238,15.8607776v-15.8607776h-14.5019764v45.232449h14.5019764v-14.6208629l.0337701-.0201436c1.8820399-.9805171,3.5912797-1.9705135,5.1928897-3.0099802l.2117048-.1374501,10.0419566,17.7884367h16.1707316l-15.6412721-26.1953095c.9781473-1.0287037,1.9041583-2.0713301,2.7738859-3.1251144Z"/>
  <path class="cls-1" d="m276.4612918,59.1202445c-3.6205076,1.925783-7.7607979,2.6796851-12.25755,2.998526v-16.8863215h-14.6747765v45.2323503h14.6747765v-14.890431c4.276358-.3643613,8.3878153-1.3053813,12.25755-2.7440655v17.6344965h14.7320474v-45.2323503h-14.7320474v13.8877955Z"/>
  <path class="cls-1" d="m466.0765144,79.054661c-.3120276-.7684173-.6440013-1.5849225-.9994757-2.458896-1.0421327-2.5586263-2.2019669-5.3918567-3.377995-8.3119808-1.6808018-4.1730729-3.3953737-8.5251667-4.8512392-12.5202062-1.32355-3.5677789-2.3593631-6.5603803-3.0501685-8.9199409-.1724051-.6328433-.2877368-1.1507499-.460142-1.6112868h-15.8257239c-.1724051.4605369-.2877368.9784435-.460142,1.6112868-.6908054,2.3595606-1.7266185,5.352162-3.0501685,8.9199409-1.7495269,4.8012753-3.872302,10.1180874-5.8613792,15.0192905-.8243058,2.0308455-1.6260983,3.9920772-2.367855,5.8128964-.8922409,2.1941662-1.6426871,4.0410536-2.2752342,5.6097823-1.8555768,4.6029996-2.6905468,6.8000293-3.0768291,8.2592521h13.7540976l1.5542134-4.2060531c.3878622-.0116517.7745394-.0169838,1.163389-.0347575.9506968-.0432494,1.9029734-.0984467,2.8593972-.1780335,4.3409359-.3614978,8.5625903-1.090418,12.6414625-2.1457822.0685276-.0177737.1364627-.0372261.2051878-.0550985.2847746.8359575.4516501,1.3254261.4516501,1.3254261.9783448,2.8773684,1.7266185,4.8338605,1.8994186,5.2942987h15.4803212c-.4654741-1.7584138-1.5828489-4.5887806-4.352785-11.4101384Zm-25.7199611-5.4010398l.7462989-2.0342027,3.8328048-10.4462101c.5189927,1.6021037,1.8786826,5.6377265,3.3398802,9.9518043.0908435.2683832.1820819.5376552.2735179.807717l.1273784.3747293c-.4048459.0888686-.8102843.1762561-1.2176976.2586077-2.3269754.4704112-4.6956204.8352663-7.1021826,1.0875544Z"/>
  <path class="cls-1" d="m193.332597,76.595765c-1.0421327-2.5586263-2.2019669-5.3918567-3.377995-8.3119808-1.6808018-4.1730729-3.3953737-8.5251667-4.8512392-12.5202062-1.32355-3.5677789-2.3593631-6.5603803-3.0501685-8.9199409-.1724051-.6328433-.2877368-1.1507499-.460142-1.6112868h-15.8257239c-.1724051.4605369-.2877368.9784435-.460142,1.6112868-.6908054,2.3595606-1.7266185,5.352162-3.0501685,8.9199409-1.7495269,4.8012753-3.872302,10.1180874-5.8613792,15.0192905-.8243058,2.0308455-1.6260983,3.9920772-2.367855,5.8128964-.8922409,2.1941662-1.6426871,4.0410536-2.2752342,5.6097823-1.8555768,4.6029996-2.6905468,6.8000293-3.0768291,8.2592521h13.7540976l1.5542134-4.2060531c.3878622-.0116517.7745394-.0169838,1.163389-.0347575.9506968-.0432494,1.9029734-.0984467,2.8593972-.1780335,4.3409359-.3614978,8.5625903-1.090418,12.6414625-2.1457822.0685276-.0177737.1364627-.0372261.2051878-.0550985.2847746.8359575.4516501,1.3254261.4516501,1.3254261.9783448,2.8773684,1.7266185,4.8338605,1.8994186,5.2942987h15.4803212c-.4654741-1.7584138-1.5828489-4.5887806-4.352785-11.4101384-.3120276-.7684173-.6440013-1.5849225-.9994757-2.458896Zm-24.7204853-2.9421438l.7462989-2.0342027,3.8328048-10.4462101c.5189927,1.6021037,1.8786826,5.6377265,3.3398802,9.9518043.0908435.2683832.1820819.5376552.2735179.807717l.1271809.3747293c-.4046485.0888686-.8100868.1762561-1.2175001.2586077-2.3269754.4704112-4.6956204.8352663-7.1021826,1.0875544Z"/>
  <path class="cls-1" d="m89.8893257,76.595765c-1.0421327-2.5586263-2.2019669-5.3918567-3.377995-8.3119808-1.6808018-4.1730729-3.3953737-8.5251667-4.8512392-12.5202062-1.32355-3.5677789-2.3593631-6.5603803-3.0501685-8.9199409-.1724051-.6328433-.2877368-1.1507499-.460142-1.6112868h-15.8257239c-.1724051.4605369-.2877368.9784435-.460142,1.6112868-.6908054,2.3595606-1.7266185,5.352162-3.0501685,8.9199409-1.7495269,4.8012753-3.872302,10.1180874-5.8613792,15.0192905-.8243058,2.0308455-1.6260983,3.9920772-2.367855,5.8128964-.8922409,2.1941662-1.6426871,4.0410536-2.2752342,5.6097823-1.8555768,4.6029996-2.6905468,6.8000293-3.0768291,8.2592521h13.7540976l1.5542134-4.2059543c.3878622-.0117504.7745394-.0170825,1.163389-.0348562.9506968-.0432494,1.9029734-.0984467,2.8591997-.1780335,4.3409359-.3614978,8.5627878-1.0903192,12.64166-2.1457822.0685276-.0177737.1364627-.0372261.2049903-.0550985.2847746.8359575.4518476,1.3254261.4518476,1.3254261.9783448,2.8773684,1.7266185,4.8338605,1.8994186,5.2942987h15.4803212c-.4654741-1.7584138-1.5828489-4.5887806-4.352785-11.4101384-.3120276-.7684173-.6440013-1.5849225-.9994757-2.458896Zm-17.6183027-4.0295995c-2.3269754.4704112-4.6956204.8351675-7.1023801,1.0874557l.7464964-2.0342027,3.8328048-10.4462101c.5189927,1.6021037,1.8786826,5.6377265,3.3398802,9.9518043.0908435.2683832.1820819.5376552.2735179.807717l.1271809.3747293c-.4046485.0888686-.8100868.1762561-1.2175001.2587064Z"/>
</svg>